<svg width="800" height="800" viewBox="0 0 800 800" fill="none" xmlns="http://www.w3.org/2000/svg">
<path d="M679.037 224.984H737V649.984H62V224.984H124.5" stroke="black" stroke-width="25" stroke-linecap="round" stroke-linejoin="round"/>
<path d="M399.5 633.549V222.487C399.5 222.487 496.5 123.824 674.337 156.712V567.774C674.337 567.774 512.663 551.324 399.5 633.549Z" stroke="black" stroke-width="25" stroke-linecap="round" stroke-linejoin="round"/>
<path d="M462 281.022C504.678 260.856 551.248 250.263 598.45 249.984" stroke="black" stroke-width="25" stroke-linecap="round" stroke-linejoin="round"/>
<path d="M462 331.022C504.678 310.856 551.248 300.263 598.45 299.984" stroke="black" stroke-width="25" stroke-linecap="round" stroke-linejoin="round"/>
<path d="M462 381.022C504.678 360.856 551.248 350.263 598.45 349.984" stroke="black" stroke-width="25" stroke-linecap="round" stroke-linejoin="round"/>
<path d="M399.5 633.549V222.487C399.5 222.487 302.437 123.824 124.5 156.712V567.774C124.5 567.774 286.262 551.324 399.5 633.549Z" stroke="black" stroke-width="25" stroke-linecap="round" stroke-linejoin="round"/>
<path d="M335.95 281.022C293.273 260.853 246.702 250.259 199.5 249.984" stroke="black" stroke-width="25" stroke-linecap="round" stroke-linejoin="round"/>
<path d="M335.95 331.022C293.273 310.853 246.702 300.259 199.5 299.984" stroke="black" stroke-width="25" stroke-linecap="round" stroke-linejoin="round"/>
<path d="M335.95 381.022C293.273 360.853 246.702 350.259 199.5 349.984" stroke="black" stroke-width="25" stroke-linecap="round" stroke-linejoin="round"/>
</svg>
