<svg xmlns="http://www.w3.org/2000/svg" width="54.749" height="54.75" viewBox="0 0 54.749 54.75">
  <path id="book" d="M.783,45.156l26.184,9.522a1.195,1.195,0,0,0,.814,0l26.184-9.522a1.191,1.191,0,0,0,.783-1.119V10.712a1.19,1.19,0,0,0-1.566-1.13L47.608,11.44V1.191A1.192,1.192,0,0,0,46,.075L27.374,7.061,8.75.075A1.192,1.192,0,0,0,7.141,1.191V11.44L1.567,9.583A1.191,1.191,0,0,0,0,10.712V44.038A1.192,1.192,0,0,0,.783,45.156ZM28.565,37.7l11.153-4.46a1.19,1.19,0,1,0-.883-2.211L28.565,35.139V28.18l11.153-4.46a1.19,1.19,0,1,0-.883-2.211L28.565,25.617V18.659L39.718,14.2a1.19,1.19,0,1,0-.883-2.211L28.565,16.1V9.158L45.227,2.909V38.453L28.565,44.7ZM9.522,2.908,26.184,9.157v6.938l-10.27-4.109a1.19,1.19,0,1,0-.883,2.21l11.153,4.463v6.958l-10.27-4.109a1.19,1.19,0,1,0-.883,2.211L26.184,28.18v6.958L15.914,31.03a1.19,1.19,0,1,0-.883,2.211L26.184,37.7v7L9.522,38.452ZM2.38,12.363l4.761,1.588V39.277a1.193,1.193,0,0,0,.772,1.115l19.043,7.141a1.207,1.207,0,0,0,.837,0l19.043-7.141a1.193,1.193,0,0,0,.771-1.115V13.951l4.761-1.588V43.2L27.374,52.293,2.38,43.2Zm0,0" fill="#c3e5ff"/>
</svg>
