<svg xmlns="http://www.w3.org/2000/svg" width="82" height="82" viewBox="0 0 82 82">
  <g id="mozakericon" transform="translate(-225 -415)">
    <path id="Polygon_1" data-name="Polygon 1" d="M59.978,0A3,3,0,0,1,62.4,1.228l18.3,25a3,3,0,0,1,0,3.544l-18.3,25A3,3,0,0,1,59.978,56H22.022A3,3,0,0,1,19.6,54.772l-18.3-25a3,3,0,0,1,0-3.544l18.3-25A3,3,0,0,1,22.022,0Z" transform="translate(294 415) rotate(90)" fill="#fedf99"/>
    <path id="Polygon_2" data-name="Polygon 2" d="M47.3,0A28,28,0,0,1,69.89,11.459h0a28,28,0,0,1,0,33.081h0A28,28,0,0,1,47.3,56H34.7A28,28,0,0,1,12.11,44.541h0a28,28,0,0,1,0-33.081h0A28,28,0,0,1,34.7,0Z" transform="translate(225 428)" fill="#fedf99"/>
  </g>
</svg>
