<svg xmlns="http://www.w3.org/2000/svg" width="103.723" height="137.289" viewBox="0 0 103.723 137.289">
  <path id="Icon_awesome-pray" data-name="Icon awesome-pray" d="M67.144,33.572A16.786,16.786,0,1,0,50.358,16.786,16.785,16.785,0,0,0,67.144,33.572ZM59.111,78.095a10.5,10.5,0,0,0,14.68,1.369l23.081-18.89a10.492,10.492,0,1,0-13.3-16.235L68.511,56.666,58.305,44.52a19.178,19.178,0,0,0-16.786-6.644A18.851,18.851,0,0,0,26.735,47.56L13.786,71.7c-6.137,11.446-2.279,25.276,8.967,32.458l11.753,9.151H10.491a10.491,10.491,0,1,0,0,20.983H65.046c8.939,0,14.1-11.223,7.417-17.909L43.649,87.566l9.127-17.014Z" transform="translate(1.5 1.5)" fill="none" stroke="#45b5ff" stroke-width="3"/>
</svg>
