<svg xmlns="http://www.w3.org/2000/svg" width="56" height="80.724" viewBox="0 0 56 80.724">
  <path id="Path_2" data-name="Path 2" d="M104.349,56.5a1.972,1.972,0,0,0,1.494-2.276q-.024-.133-.051-.267a1.972,1.972,0,0,0-2.215-1.569,1.972,1.972,0,0,0,.964-2.533q-.051-.122-.1-.243a1.973,1.973,0,0,0-2.476-1.082,1.972,1.972,0,0,0,.478-2.646l-.162-.242a1.973,1.973,0,0,0-2.593-.616,1.972,1.972,0,0,0,.106-2.649l-.165-.195a1.972,1.972,0,0,0-2.61-.358A1.972,1.972,0,0,0,96.93,39.2l-.173-.181a1.972,1.972,0,0,0-2.61-.207,1.973,1.973,0,0,0-.205-2.607l-.173-.167a1.973,1.973,0,0,0-2.607-.119,1.972,1.972,0,0,0-.276-2.589l-.18-.166a1.972,1.972,0,0,0-2.6-.061,1.972,1.972,0,0,0-.307-2.58l-.181-.164a1.973,1.973,0,0,0-2.59-.043,1.972,1.972,0,0,0-.311-2.568l-.181-.164a1.973,1.973,0,0,0-2.578-.058,1.972,1.972,0,0,0-.277-2.56L81.5,24.8a1.97,1.97,0,0,0-2.607-.08,1.971,1.971,0,0,0-.142-2.595l-.083-.085a1.954,1.954,0,0,0-1.974-.51A4.424,4.424,0,0,0,75.4,17.978a25.891,25.891,0,0,1-5.189-5.919c-.732-.913-2.459-2.205-3.982-1.6a2.839,2.839,0,0,1-.753-.867,3.09,3.09,0,0,1,.2-2.044l.022-.069q.1-.3.211-.605a27.246,27.246,0,0,0,.871-2.81c.466-1.94-1.06-3.131-2.174-4a.294.294,0,1,0-.362.464c1.326,1.035,2.313,1.943,1.963,3.4a26.815,26.815,0,0,1-.854,2.751c-.071.2-.142.405-.213.614l-.024.074a6.307,6.307,0,0,0-.33,1.4,4.222,4.222,0,0,1-.134-1.35c.019-.294.064-.59.111-.9a6.154,6.154,0,0,0,.082-1.925,2.8,2.8,0,0,0-2.205-2.446.294.294,0,1,0-.116.577A2.225,2.225,0,0,1,64.266,4.7a5.642,5.642,0,0,1-.085,1.732c-.047.312-.095.634-.116.952a4.454,4.454,0,0,0,.331,2.04,2.715,2.715,0,0,1-.833-.732A4.187,4.187,0,0,1,62.914,6.6c0-.092,0-.182,0-.272a3.1,3.1,0,0,0-.1-.949,4.116,4.116,0,0,0-.894-1.353l-.149.127-.293.261a3.632,3.632,0,0,1,.775,1.14,2.605,2.605,0,0,1,.069.769c0,.1,0,.193,0,.3a4.773,4.773,0,0,0,.758,2.4,4.145,4.145,0,0,0,1.535,1.192,4.318,4.318,0,0,1,1.13.783c-.589,1.4.4,3.138,1.169,3.941a25.9,25.9,0,0,1,5.189,5.919,4.429,4.429,0,0,0,3.354,1.748,1.969,1.969,0,0,0-.1,1.349l.032.113A1.97,1.97,0,0,0,77.515,25.5a1.973,1.973,0,0,0-1.184,2.194c.014.072.027.145.04.217a1.973,1.973,0,0,0,1.655,1.6,1.973,1.973,0,0,0-1.552,1.614q-.015.093-.033.186a1.972,1.972,0,0,0,.788,1.976,1.973,1.973,0,0,0-2.036.755c-.04.055-.081.11-.123.164a1.973,1.973,0,0,0-.027,2.358,1.973,1.973,0,0,0-2.4.073l-.176.141a1.972,1.972,0,0,0-.525,2.435,1.973,1.973,0,0,0-2.5-.3l-.2.127a1.972,1.972,0,0,0-.741,2.466,1.972,1.972,0,0,0-2.566-.4l-.21.133a1.972,1.972,0,0,0-.7,2.562A1.973,1.973,0,0,0,62.4,43.58l-.2.154a1.973,1.973,0,0,0-.48,2.6,1.972,1.972,0,0,0-2.643-.006l-.19.172a1.972,1.972,0,0,0-.246,2.647,1.972,1.972,0,0,0-2.653.257l-.174.2a1.972,1.972,0,0,0,.059,2.675,1.972,1.972,0,0,0-2.613.635c-.049.075-.1.15-.146.225a1.972,1.972,0,0,0,.5,2.661,1.972,1.972,0,0,0-2.463,1.176c-.032.086-.065.173-.1.259a1.972,1.972,0,0,0,1.139,2.5,1.97,1.97,0,0,0-2.03,1.883q-.006.142-.01.285a1.972,1.972,0,0,0,1.925,2.018h0a1.972,1.972,0,0,0-1.242,2.492q.045.135.093.27a1.973,1.973,0,0,0,2.49,1.205,1.972,1.972,0,0,0-.4,2.716q.079.11.16.219a1.972,1.972,0,0,0,2.674.469,1.972,1.972,0,0,0,.211,2.7c.067.061.136.122.2.182a1.972,1.972,0,0,0,2.7-.092,1.972,1.972,0,0,0,.741,2.6l.226.133a1.972,1.972,0,0,0,2.627-.594,1.973,1.973,0,0,0,1.178,2.414l.244.092a1.972,1.972,0,0,0,2.48-1.014,1.973,1.973,0,0,0,1.524,2.2l.255.056a1.973,1.973,0,0,0,2.3-1.352,1.972,1.972,0,0,0,1.791,1.971l.257.023A1.972,1.972,0,0,0,74.7,78.98a1.973,1.973,0,0,0,2.006,1.745l.259-.007a1.972,1.972,0,0,0,1.907-1.846,1.973,1.973,0,0,0,2.182,1.515l.251-.034a1.972,1.972,0,0,0,1.7-2.04,1.972,1.972,0,0,0,2.331,1.276l.247-.061a1.972,1.972,0,0,0,1.475-2.212,1.972,1.972,0,0,0,2.46,1.012l.239-.088a1.972,1.972,0,0,0,1.215-2.374,1.972,1.972,0,0,0,2.575.707l.228-.119a1.972,1.972,0,0,0,.893-2.535,1.973,1.973,0,0,0,2.675.293l.209-.158A1.972,1.972,0,0,0,98,71.4a1.972,1.972,0,0,0,2.695-.188l.179-.2a1.972,1.972,0,0,0-.057-2.709,1.973,1.973,0,0,0,2.614-.736c.046-.078.091-.155.137-.233a1.972,1.972,0,0,0-.643-2.646,1.972,1.972,0,0,0,2.387-1.32c.027-.087.053-.173.079-.26a1.972,1.972,0,0,0-1.25-2.425,1.972,1.972,0,0,0,1.994-1.861c.005-.09.01-.181.014-.272A1.973,1.973,0,0,0,104.349,56.5ZM78.624,25a2,2,0,0,0-.231.347,1.932,1.932,0,0,0-.365.015,2.062,2.062,0,0,0,.6-.362Zm24.9,35.573a1.962,1.962,0,0,0-1.914,1.413q-.031.1-.063.207a1.973,1.973,0,0,0,.816,2.245,1.973,1.973,0,0,0-2.209.921q-.055.094-.11.188a1.973,1.973,0,0,0,.288,2.392,1.973,1.973,0,0,0-2.379.422l-.151.165a1.973,1.973,0,0,0-.2,2.426,1.973,1.973,0,0,0-2.44-.039l-.18.136a1.973,1.973,0,0,0-.629,2.366,1.973,1.973,0,0,0-2.408-.458l-.2.107a1.972,1.972,0,0,0-1,2.276,1.974,1.974,0,0,0-2.357-.8l-.219.08a1.973,1.973,0,0,0-1.274,2.149A1.973,1.973,0,0,0,84.635,75.7l-.228.056a1.972,1.972,0,0,0-1.505,2,1.973,1.973,0,0,0-2.133-1.312l-.233.032a1.973,1.973,0,0,0-1.709,1.829,1.972,1.972,0,0,0-1.984-1.53l-.229.006a1.973,1.973,0,0,0-1.9,1.628,1.972,1.972,0,0,0-1.792-1.737l-.228-.02a1.973,1.973,0,0,0-2.067,1.385,1.973,1.973,0,0,0-1.56-1.934l-.221-.048a1.972,1.972,0,0,0-2.217,1.09,1.972,1.972,0,0,0-1.261-2.116l-.212-.08a1.973,1.973,0,0,0-2.338.73,1.973,1.973,0,0,0-.892-2.273l-.194-.115a1.973,1.973,0,0,0-2.409.3,1.973,1.973,0,0,0-.453-2.384c-.054-.047-.108-.1-.161-.143a1.973,1.973,0,0,0-2.41-.183,1.973,1.973,0,0,0,.048-2.411q-.065-.087-.128-.175a1.974,1.974,0,0,0-2.231-.717,1.972,1.972,0,0,0,.654-2.225c-.023-.064-.045-.128-.066-.192a1.973,1.973,0,0,0-1.823-1.349A1.972,1.972,0,0,0,54.1,61.991c0-.068,0-.135.007-.2a1.974,1.974,0,0,0-1.25-1.924,1.975,1.975,0,0,0,1.913-1.305c.024-.067.048-.133.073-.2a1.973,1.973,0,0,0-.685-2.292,1.972,1.972,0,0,0,2.276-.81l.12-.184a1.973,1.973,0,0,0-.227-2.453,1.973,1.973,0,0,0,2.442-.415l.152-.17a1.973,1.973,0,0,0,.108-2.506,1.972,1.972,0,0,0,2.513-.117l.172-.155a1.973,1.973,0,0,0,.364-2.5,1.973,1.973,0,0,0,2.525.1l.186-.142a1.972,1.972,0,0,0,.563-2.467,1.973,1.973,0,0,0,2.5.315l.2-.129a1.973,1.973,0,0,0,.746-2.469,1.973,1.973,0,0,0,2.571.4l.213-.137a1.973,1.973,0,0,0,.689-2.555,1.972,1.972,0,0,0,2.666.185l.2-.164A1.972,1.972,0,0,0,75.482,37a1.973,1.973,0,0,0,2.721-.4q.086-.112.169-.226a1.972,1.972,0,0,0-.424-2.757l-.02-.015L78,33.62a1.973,1.973,0,0,0,2.309-1.564c.019-.1.036-.2.053-.295A1.972,1.972,0,0,0,78.738,29.5l-.035-.005a1.969,1.969,0,0,0,1.407-1.124,1.972,1.972,0,0,0,1.478-.439,1.973,1.973,0,0,0,.3,2.583l.181.163a1.972,1.972,0,0,0,2.592.046,1.973,1.973,0,0,0,.314,2.571l.181.163a1.972,1.972,0,0,0,2.585.048,1.972,1.972,0,0,0,.292,2.566l.18.165a1.972,1.972,0,0,0,2.571.086,1.973,1.973,0,0,0,.24,2.555l.177.17a1.972,1.972,0,0,0,2.557.155,1.972,1.972,0,0,0,.153,2.554l.164.172a1.972,1.972,0,0,0,2.531.272,1.973,1.973,0,0,0,.01,2.538l.15.178a1.973,1.973,0,0,0,2.471.457,1.973,1.973,0,0,0-.226,2.488l.109.163a1.973,1.973,0,0,0,2.319.792,1.973,1.973,0,0,0-.63,2.353l.087.207a1.974,1.974,0,0,0,2.1,1.2,1.972,1.972,0,0,0-1.075,2.158q.021.105.04.211a1.973,1.973,0,0,0,1.768,1.61,1.973,1.973,0,0,0-1.522,1.839c0,.071-.006.142-.011.214A1.975,1.975,0,0,0,103.524,60.577Z" transform="translate(-50.153 -0.001)" fill="#8ba2b3"/>
</svg>
