<svg id="Icon_feather-sun" data-name="Icon feather-sun" xmlns="http://www.w3.org/2000/svg" width="103.402" height="103.402" viewBox="0 0 103.402 103.402">
  <path id="Path_4" data-name="Path 4" d="M56.137,33.319A22.819,22.819,0,1,1,33.319,10.5,22.819,22.819,0,0,1,56.137,33.319Z" transform="translate(18.382 18.382)" fill="none" stroke="#f79400" stroke-linecap="round" stroke-linejoin="round" stroke-width="3"/>
  <path id="Path_5" data-name="Path 5" d="M18,1.5v9.127" transform="translate(33.701)" fill="none" stroke="#f79400" stroke-linecap="round" stroke-linejoin="round" stroke-width="3"/>
  <path id="Path_6" data-name="Path 6" d="M18,31.5v9.127" transform="translate(33.701 61.275)" fill="none" stroke="#f79400" stroke-linecap="round" stroke-linejoin="round" stroke-width="3"/>
  <path id="Path_7" data-name="Path 7" d="M6.33,6.33l6.481,6.481" transform="translate(9.865 9.865)" fill="none" stroke="#f79400" stroke-linecap="round" stroke-linejoin="round" stroke-width="3"/>
  <path id="Path_8" data-name="Path 8" d="M27.54,27.54l6.481,6.481" transform="translate(53.187 53.187)" fill="none" stroke="#f79400" stroke-linecap="round" stroke-linejoin="round" stroke-width="3"/>
  <path id="Path_9" data-name="Path 9" d="M1.5,18h9.127" transform="translate(0 33.701)" fill="none" stroke="#f79400" stroke-linecap="round" stroke-linejoin="round" stroke-width="3"/>
  <path id="Path_10" data-name="Path 10" d="M31.5,18h9.127" transform="translate(61.275 33.701)" fill="none" stroke="#f79400" stroke-linecap="round" stroke-linejoin="round" stroke-width="3"/>
  <path id="Path_11" data-name="Path 11" d="M6.33,34.021l6.481-6.481" transform="translate(9.865 53.187)" fill="none" stroke="#f79400" stroke-linecap="round" stroke-linejoin="round" stroke-width="3"/>
  <path id="Path_12" data-name="Path 12" d="M27.54,12.811,34.021,6.33" transform="translate(53.187 9.865)" fill="none" stroke="#f79400" stroke-linecap="round" stroke-linejoin="round" stroke-width="3"/>
</svg>
