<svg width="100" height="100" viewBox="0 0 100 100" fill="none" xmlns="http://www.w3.org/2000/svg">
  <g stroke="#4A1A24" stroke-width="2" stroke-linecap="round" stroke-linejoin="round">
    <!-- Bead loop: 16 beads on ellipse (cx=50, cy=38, rx=28, ry=24). -->
    <circle cx="50" cy="62" r="5.2" fill="#5CB3B1"/>
    <circle cx="60.7" cy="60.2" r="5.2" fill="#5CB3B1"/>
    <circle cx="69.8" cy="55" r="5.2" fill="#D15268"/>
    <circle cx="75.9" cy="47.2" r="5.2" fill="#D15268"/>
    <circle cx="78" cy="38" r="5.2" fill="#D15268"/>
    <circle cx="75.9" cy="28.8" r="5.2" fill="#FFFFFF"/>
    <circle cx="69.8" cy="21" r="5.2" fill="#FFFFFF"/>
    <circle cx="60.7" cy="15.8" r="5.2" fill="#FFFFFF"/>
    <circle cx="50" cy="14" r="5.2" fill="#D15268"/>
    <circle cx="39.3" cy="15.8" r="5.2" fill="#D15268"/>
    <line x1="36.8" y1="15.8" x2="41.8" y2="15.8"/>
    <circle cx="30.2" cy="21" r="5.2" fill="#D15268"/>
    <line x1="27.7" y1="21" x2="32.7" y2="21"/>
    <circle cx="24.1" cy="28.8" r="5.2" fill="#D15268"/>
    <line x1="21.6" y1="28.8" x2="26.6" y2="28.8"/>
    <circle cx="22" cy="38" r="5.2" fill="#D15268"/>
    <circle cx="24.1" cy="47.2" r="5.2" fill="#D15268"/>
    <circle cx="30.2" cy="55" r="5.2" fill="#D15268"/>
    <circle cx="39.3" cy="60.2" r="5.2" fill="#D15268"/>

    <!-- Imame tassel -->
    <ellipse cx="50" cy="73.5" rx="4.2" ry="7.2" fill="#F79468"/>
    <line x1="50" y1="70.5" x2="50" y2="76.5"/>
    <path d="M50 80.8C46.5 84.5 44.5 88.5 46 93.5" fill="none" stroke="#912C3E" stroke-width="2.4"/>
    <path d="M46 93.5C48.5 92.5 51.5 91.5 54 92" fill="#912C3E" stroke="#4A1A24" stroke-width="2"/>
  </g>
</svg>
