<?xml version="1.0"?>
<svg xmlns="http://www.w3.org/2000/svg" viewBox="0 0 512 512" role="img" aria-label="Tilawa app icon">
  
  <defs>
    <linearGradient id="tilawa-icon-bg" x1="0%" y1="0%" x2="100%" y2="100%">
      <stop offset="0%" stop-color="#3d7c5f"></stop>
      <stop offset="100%" stop-color="#2d5c3f"></stop>
    </linearGradient>
    <radialGradient id="tilawa-icon-glow" cx="50%" cy="35%" r="55%">
      <stop offset="0%" stop-color="#ffffff" stop-opacity="0.12"></stop>
      <stop offset="100%" stop-color="#ffffff" stop-opacity="0"></stop>
    </radialGradient>
  </defs>
  <rect width="512" height="512" rx="112" fill="url(#tilawa-icon-bg)"></rect>
  <rect width="512" height="512" rx="112" fill="url(#tilawa-icon-glow)"></rect>
  
  <path d="M256 96 C 184 96 144 154 144 224 L 144 392 C 144 405 154 416 168 416 L 344 416 C 358 416 368 405 368 392 L 368 224 C 368 154 328 96 256 96 Z" fill="none" stroke="#d4af37" stroke-width="10" stroke-linejoin="round"></path>
  
  <path d="M256 140 C 208 140 184 178 184 224 L 184 380 L 328 380 L 328 224 C 328 178 304 140 256 140 Z" fill="none" stroke="#d4af37" stroke-width="4" stroke-opacity="0.45"></path>
  
  <path d="M256 230 a 46 46 0 1 0 22 86 a 36 36 0 1 1 -22 -86 Z" fill="#d4af37"></path>
  
  <path d="M310 244 l 4.5 9.4 10.3 1.5 -7.4 7.2 1.7 10.2 -9.1 -4.8 -9.1 4.8 1.7 -10.2 -7.4 -7.2 10.3 -1.5 Z" fill="#d4af37"></path>
</svg>